<mxfile host="Electron" modified="2024-05-18T09:13:30.062Z" agent="Mozilla/5.0 (Windows NT 10.0; Win64; x64) AppleWebKit/537.36 (KHTML, like Gecko) draw.io/24.4.0 Chrome/120.0.6099.109 Electron/28.1.0 Safari/537.36" etag="YJ2Dh3L5oyyc4iL0D5Kl" version="24.4.0" type="device">
  <diagram name="Page-1" id="13e1069c-82ec-6db2-03f1-153e76fe0fe0">
    <mxGraphModel dx="1687" dy="1843" grid="1" gridSize="10" guides="1" tooltips="1" connect="1" arrows="1" fold="1" page="1" pageScale="1" pageWidth="1100" pageHeight="850" background="none" math="0" shadow="0">
      <root>
        <mxCell id="0" />
        <mxCell id="1" parent="0" />
        <mxCell id="7baba1c4bc27f4b0-7" value="&lt;u&gt;System&lt;/u&gt;" style="shape=umlLifeline;perimeter=lifelinePerimeter;whiteSpace=wrap;html=1;container=1;collapsible=0;recursiveResize=0;outlineConnect=0;rounded=1;shadow=0;comic=0;labelBackgroundColor=none;strokeWidth=1;fontFamily=Verdana;fontSize=12;align=center;" parent="1" vertex="1">
          <mxGeometry x="960" y="80" width="100" height="680" as="geometry" />
        </mxCell>
        <mxCell id="mmyLkOlGR0KKX4rd5R46-1" value="" style="html=1;points=[];perimeter=orthogonalPerimeter;rounded=0;shadow=0;comic=0;labelBackgroundColor=none;strokeWidth=1;fontFamily=Verdana;fontSize=12;align=center;" vertex="1" parent="7baba1c4bc27f4b0-7">
          <mxGeometry x="50" y="130" width="10" height="50" as="geometry" />
        </mxCell>
        <mxCell id="mmyLkOlGR0KKX4rd5R46-9" value="" style="group" vertex="1" connectable="0" parent="7baba1c4bc27f4b0-7">
          <mxGeometry x="-372" y="220" width="432" height="50" as="geometry" />
        </mxCell>
        <mxCell id="mmyLkOlGR0KKX4rd5R46-6" value="" style="html=1;points=[];perimeter=orthogonalPerimeter;rounded=0;shadow=0;comic=0;labelBackgroundColor=none;strokeWidth=1;fontFamily=Verdana;fontSize=12;align=center;" vertex="1" parent="mmyLkOlGR0KKX4rd5R46-9">
          <mxGeometry x="422" width="10" height="50" as="geometry" />
        </mxCell>
        <mxCell id="mmyLkOlGR0KKX4rd5R46-7" value="&quot;bookCourse (DOJO SchülerID)&quot;" style="html=1;verticalAlign=bottom;endArrow=block;labelBackgroundColor=none;fontFamily=Verdana;fontSize=12;edgeStyle=elbowEdgeStyle;elbow=vertical;" edge="1" parent="mmyLkOlGR0KKX4rd5R46-9">
          <mxGeometry relative="1" as="geometry">
            <mxPoint x="2" y="10" as="sourcePoint" />
            <mxPoint x="421.5" y="10" as="targetPoint" />
          </mxGeometry>
        </mxCell>
        <mxCell id="mmyLkOlGR0KKX4rd5R46-8" value="&quot;DOJO Schüler angemeldet&quot;" style="html=1;verticalAlign=bottom;endArrow=open;dashed=1;endSize=8;labelBackgroundColor=none;fontFamily=Verdana;fontSize=12;edgeStyle=elbowEdgeStyle;elbow=vertical;entryX=0.8;entryY=0.352;entryDx=0;entryDy=0;entryPerimeter=0;" edge="1" parent="mmyLkOlGR0KKX4rd5R46-9">
          <mxGeometry relative="1" as="geometry">
            <mxPoint y="40.960000000000036" as="targetPoint" />
            <Array as="points">
              <mxPoint x="367" y="40" />
              <mxPoint x="397" y="40" />
            </Array>
            <mxPoint x="422" y="40" as="sourcePoint" />
          </mxGeometry>
        </mxCell>
        <mxCell id="7baba1c4bc27f4b0-11" value="&quot;Ich möchte nächsten Mittwoch um 19:00 zum Kurs kommen&quot;" style="html=1;verticalAlign=bottom;endArrow=block;entryX=0;entryY=0;labelBackgroundColor=none;fontFamily=Verdana;fontSize=12;edgeStyle=elbowEdgeStyle;elbow=vertical;" parent="1" target="7baba1c4bc27f4b0-10" edge="1">
          <mxGeometry x="0.0034" relative="1" as="geometry">
            <mxPoint x="155" y="190" as="sourcePoint" />
            <mxPoint as="offset" />
          </mxGeometry>
        </mxCell>
        <mxCell id="7baba1c4bc27f4b0-14" value="&quot;Ist noch ein freier Platz vorhanden&quot;" style="html=1;verticalAlign=bottom;endArrow=block;labelBackgroundColor=none;fontFamily=Verdana;fontSize=12;edgeStyle=elbowEdgeStyle;elbow=vertical;" parent="1" edge="1">
          <mxGeometry relative="1" as="geometry">
            <mxPoint x="590" y="220" as="sourcePoint" />
            <mxPoint x="1009.5" y="220" as="targetPoint" />
          </mxGeometry>
        </mxCell>
        <mxCell id="wvVl8y5UdAntTwZXpwCr-1" value="Sequenzdiagramm - Use Case 4 - Organisieren/Abhalten von Kurs" style="text;html=1;align=center;verticalAlign=middle;whiteSpace=wrap;rounded=0;fontStyle=1;fontSize=30;" vertex="1" parent="1">
          <mxGeometry y="-200" width="1100" height="70" as="geometry" />
        </mxCell>
        <mxCell id="2wBETK8cRAZV7mtq0XtE-7" value="" style="group" vertex="1" connectable="0" parent="1">
          <mxGeometry x="510" y="-70" width="512" height="820" as="geometry" />
        </mxCell>
        <mxCell id="7baba1c4bc27f4b0-2" value=":Sensei" style="shape=umlLifeline;perimeter=lifelinePerimeter;whiteSpace=wrap;html=1;container=1;collapsible=0;recursiveResize=0;outlineConnect=0;rounded=1;shadow=0;comic=0;labelBackgroundColor=none;strokeWidth=1;fontFamily=Verdana;fontSize=12;align=center;" parent="2wBETK8cRAZV7mtq0XtE-7" vertex="1">
          <mxGeometry x="25" y="160" width="100" height="660" as="geometry" />
        </mxCell>
        <mxCell id="7baba1c4bc27f4b0-10" value="" style="html=1;points=[];perimeter=orthogonalPerimeter;rounded=0;shadow=0;comic=0;labelBackgroundColor=none;strokeWidth=1;fontFamily=Verdana;fontSize=12;align=center;" parent="7baba1c4bc27f4b0-2" vertex="1">
          <mxGeometry x="45" y="100" width="10" height="200" as="geometry" />
        </mxCell>
        <mxCell id="mmyLkOlGR0KKX4rd5R46-29" value="hält den Kurs ab und beendet den Kurs" style="html=1;align=left;spacingLeft=2;endArrow=block;rounded=0;edgeStyle=orthogonalEdgeStyle;curved=0;rounded=0;" edge="1" target="mmyLkOlGR0KKX4rd5R46-28" parent="7baba1c4bc27f4b0-2">
          <mxGeometry relative="1" as="geometry">
            <mxPoint x="50" y="530" as="sourcePoint" />
            <Array as="points">
              <mxPoint x="80" y="560" />
            </Array>
          </mxGeometry>
        </mxCell>
        <mxCell id="mmyLkOlGR0KKX4rd5R46-28" value="" style="html=1;points=[[0,0,0,0,5],[0,1,0,0,-5],[1,0,0,0,5],[1,1,0,0,-5]];perimeter=orthogonalPerimeter;outlineConnect=0;targetShapes=umlLifeline;portConstraint=eastwest;newEdgeStyle={&quot;curved&quot;:0,&quot;rounded&quot;:0};" vertex="1" parent="7baba1c4bc27f4b0-2">
          <mxGeometry x="45" y="550" width="10" height="90" as="geometry" />
        </mxCell>
        <mxCell id="2wBETK8cRAZV7mtq0XtE-4" value="" style="group" vertex="1" connectable="0" parent="2wBETK8cRAZV7mtq0XtE-7">
          <mxGeometry width="160" height="140" as="geometry" />
        </mxCell>
        <mxCell id="UV4WyTBGXpuKWvIVlbn3-1" value="Sensei" style="shape=umlActor;verticalLabelPosition=bottom;verticalAlign=top;html=1;outlineConnect=0;" vertex="1" parent="2wBETK8cRAZV7mtq0XtE-4">
          <mxGeometry x="65" y="80" width="30" height="60" as="geometry" />
        </mxCell>
        <mxCell id="2wBETK8cRAZV7mtq0XtE-3" value="Sensei ist bereits durch UseCase 2 im System" style="shape=note;whiteSpace=wrap;html=1;size=14;verticalAlign=top;align=left;spacingTop=-6;rounded=0;shadow=0;comic=0;labelBackgroundColor=none;strokeWidth=1;fontFamily=Verdana;fontSize=12" vertex="1" parent="2wBETK8cRAZV7mtq0XtE-4">
          <mxGeometry width="160" height="60" as="geometry" />
        </mxCell>
        <mxCell id="mmyLkOlGR0KKX4rd5R46-16" value="" style="html=1;points=[];perimeter=orthogonalPerimeter;rounded=0;shadow=0;comic=0;labelBackgroundColor=none;strokeWidth=1;fontFamily=Verdana;fontSize=12;align=center;" vertex="1" parent="2wBETK8cRAZV7mtq0XtE-7">
          <mxGeometry x="70" y="540" width="10" height="110" as="geometry" />
        </mxCell>
        <mxCell id="mmyLkOlGR0KKX4rd5R46-12" value="" style="group" vertex="1" connectable="0" parent="2wBETK8cRAZV7mtq0XtE-7">
          <mxGeometry x="80" y="550" width="432" height="50" as="geometry" />
        </mxCell>
        <mxCell id="mmyLkOlGR0KKX4rd5R46-13" value="" style="html=1;points=[];perimeter=orthogonalPerimeter;rounded=0;shadow=0;comic=0;labelBackgroundColor=none;strokeWidth=1;fontFamily=Verdana;fontSize=12;align=center;" vertex="1" parent="mmyLkOlGR0KKX4rd5R46-12">
          <mxGeometry x="422" width="10" height="50" as="geometry" />
        </mxCell>
        <mxCell id="mmyLkOlGR0KKX4rd5R46-14" value="&quot;bereitet Kurs vor und liest angemeldete Schüler im System&quot;" style="html=1;verticalAlign=bottom;endArrow=block;labelBackgroundColor=none;fontFamily=Verdana;fontSize=12;edgeStyle=elbowEdgeStyle;elbow=vertical;" edge="1" parent="mmyLkOlGR0KKX4rd5R46-12">
          <mxGeometry relative="1" as="geometry">
            <mxPoint x="2" y="10" as="sourcePoint" />
            <mxPoint x="421.5" y="10" as="targetPoint" />
          </mxGeometry>
        </mxCell>
        <mxCell id="mmyLkOlGR0KKX4rd5R46-15" value="&quot;x DOJO Schüler sind angemeldet&lt;span style=&quot;background-color: initial;&quot;&gt;&quot;&lt;/span&gt;" style="html=1;verticalAlign=bottom;endArrow=open;dashed=1;endSize=8;labelBackgroundColor=none;fontFamily=Verdana;fontSize=12;edgeStyle=elbowEdgeStyle;elbow=vertical;entryX=0.8;entryY=0.352;entryDx=0;entryDy=0;entryPerimeter=0;" edge="1" parent="mmyLkOlGR0KKX4rd5R46-12">
          <mxGeometry relative="1" as="geometry">
            <mxPoint y="40.960000000000036" as="targetPoint" />
            <Array as="points">
              <mxPoint x="367" y="40" />
              <mxPoint x="397" y="40" />
            </Array>
            <mxPoint x="422" y="40" as="sourcePoint" />
          </mxGeometry>
        </mxCell>
        <mxCell id="mmyLkOlGR0KKX4rd5R46-2" value="&quot;Platz noch verfügbar&quot;" style="html=1;verticalAlign=bottom;endArrow=open;dashed=1;endSize=8;labelBackgroundColor=none;fontFamily=Verdana;fontSize=12;edgeStyle=elbowEdgeStyle;elbow=vertical;entryX=0.8;entryY=0.352;entryDx=0;entryDy=0;entryPerimeter=0;" edge="1" parent="1">
          <mxGeometry relative="1" as="geometry">
            <mxPoint x="588" y="250.96000000000004" as="targetPoint" />
            <Array as="points">
              <mxPoint x="955" y="250" />
              <mxPoint x="985" y="250" />
            </Array>
            <mxPoint x="1010" y="250" as="sourcePoint" />
          </mxGeometry>
        </mxCell>
        <mxCell id="mmyLkOlGR0KKX4rd5R46-10" value="&quot;Du bist angemeldet&quot;" style="html=1;verticalAlign=bottom;endArrow=open;dashed=1;endSize=8;labelBackgroundColor=none;fontFamily=Verdana;fontSize=12;edgeStyle=elbowEdgeStyle;elbow=vertical;entryX=0.8;entryY=0.352;entryDx=0;entryDy=0;entryPerimeter=0;" edge="1" parent="1">
          <mxGeometry relative="1" as="geometry">
            <mxPoint x="155" y="380.96000000000004" as="targetPoint" />
            <Array as="points">
              <mxPoint x="522" y="380" />
              <mxPoint x="552" y="380" />
            </Array>
            <mxPoint x="577" y="380" as="sourcePoint" />
          </mxGeometry>
        </mxCell>
        <mxCell id="mmyLkOlGR0KKX4rd5R46-11" value="Nächster Mittwoch, 19:00" style="shape=note;whiteSpace=wrap;html=1;size=14;verticalAlign=top;align=left;spacingTop=-6;rounded=0;shadow=0;comic=0;labelBackgroundColor=none;strokeWidth=1;fontFamily=Verdana;fontSize=12" vertex="1" parent="1">
          <mxGeometry x="155" y="440" width="225" height="20" as="geometry" />
        </mxCell>
        <mxCell id="mmyLkOlGR0KKX4rd5R46-18" value="&quot;kommt pünktlich zum Kurs&quot;" style="html=1;verticalAlign=bottom;endArrow=block;entryX=0;entryY=0;labelBackgroundColor=none;fontFamily=Verdana;fontSize=12;edgeStyle=elbowEdgeStyle;elbow=vertical;" edge="1" parent="1">
          <mxGeometry x="0.0034" relative="1" as="geometry">
            <mxPoint x="155" y="560" as="sourcePoint" />
            <mxPoint x="580" y="560" as="targetPoint" />
            <mxPoint as="offset" />
          </mxGeometry>
        </mxCell>
        <mxCell id="mmyLkOlGR0KKX4rd5R46-19" value="sq-UC4" style="shape=umlFrame;whiteSpace=wrap;html=1;pointerEvents=0;" vertex="1" parent="1">
          <mxGeometry x="20" y="-130" width="1060" height="910" as="geometry" />
        </mxCell>
        <mxCell id="2wBETK8cRAZV7mtq0XtE-2" value="" style="group" vertex="1" connectable="0" parent="1">
          <mxGeometry x="70" y="-80" width="160" height="140" as="geometry" />
        </mxCell>
        <mxCell id="wvVl8y5UdAntTwZXpwCr-2" value="DOJO Schüler" style="shape=umlActor;verticalLabelPosition=bottom;verticalAlign=top;html=1;outlineConnect=0;" vertex="1" parent="2wBETK8cRAZV7mtq0XtE-2">
          <mxGeometry x="65" y="80" width="30" height="60" as="geometry" />
        </mxCell>
        <mxCell id="2wBETK8cRAZV7mtq0XtE-1" value="DOJO Schüler ist bereits durch UseCase 3 im System" style="shape=note;whiteSpace=wrap;html=1;size=14;verticalAlign=top;align=left;spacingTop=-6;rounded=0;shadow=0;comic=0;labelBackgroundColor=none;strokeWidth=1;fontFamily=Verdana;fontSize=12" vertex="1" parent="2wBETK8cRAZV7mtq0XtE-2">
          <mxGeometry y="10" width="160" height="60" as="geometry" />
        </mxCell>
        <mxCell id="mmyLkOlGR0KKX4rd5R46-25" value=":DOJO Schüler" style="shape=umlLifeline;perimeter=lifelinePerimeter;whiteSpace=wrap;html=1;container=1;collapsible=0;recursiveResize=0;outlineConnect=0;rounded=1;shadow=0;comic=0;labelBackgroundColor=none;strokeWidth=1;fontFamily=Verdana;fontSize=12;align=center;" vertex="1" parent="1">
          <mxGeometry x="100" y="80" width="100" height="660" as="geometry" />
        </mxCell>
        <mxCell id="mmyLkOlGR0KKX4rd5R46-26" value="" style="html=1;points=[];perimeter=orthogonalPerimeter;rounded=0;shadow=0;comic=0;labelBackgroundColor=none;strokeWidth=1;fontFamily=Verdana;fontSize=12;align=center;" vertex="1" parent="mmyLkOlGR0KKX4rd5R46-25">
          <mxGeometry x="45" y="100" width="10" height="230" as="geometry" />
        </mxCell>
        <mxCell id="mmyLkOlGR0KKX4rd5R46-24" value="" style="html=1;points=[[0,0,0,0,5],[0,1,0,0,-5],[1,0,0,0,5],[1,1,0,0,-5]];perimeter=orthogonalPerimeter;outlineConnect=0;targetShapes=umlLifeline;portConstraint=eastwest;newEdgeStyle={&quot;curved&quot;:0,&quot;rounded&quot;:0};" vertex="1" parent="mmyLkOlGR0KKX4rd5R46-25">
          <mxGeometry x="45" y="460" width="10" height="140" as="geometry" />
        </mxCell>
        <mxCell id="mmyLkOlGR0KKX4rd5R46-30" value="&quot;Entlässt DOJO Schüler&lt;span style=&quot;background-color: initial;&quot;&gt;&quot;&lt;/span&gt;" style="html=1;verticalAlign=bottom;endArrow=open;dashed=1;endSize=8;labelBackgroundColor=none;fontFamily=Verdana;fontSize=12;edgeStyle=elbowEdgeStyle;elbow=vertical;entryX=0.8;entryY=0.352;entryDx=0;entryDy=0;entryPerimeter=0;" edge="1" parent="1">
          <mxGeometry relative="1" as="geometry">
            <mxPoint x="155" y="660.96" as="targetPoint" />
            <Array as="points">
              <mxPoint x="522" y="660" />
              <mxPoint x="552" y="660" />
            </Array>
            <mxPoint x="577" y="660" as="sourcePoint" />
          </mxGeometry>
        </mxCell>
        <mxCell id="mmyLkOlGR0KKX4rd5R46-31" value="" style="html=1;points=[];perimeter=orthogonalPerimeter;rounded=0;shadow=0;comic=0;labelBackgroundColor=none;strokeWidth=1;fontFamily=Verdana;fontSize=12;align=center;" vertex="1" parent="1">
          <mxGeometry x="1002" y="680" width="10" height="50" as="geometry" />
        </mxCell>
        <mxCell id="mmyLkOlGR0KKX4rd5R46-32" value="&quot;löscht fehlende DOJO Schüler aus dem Kurs&quot;" style="html=1;verticalAlign=bottom;endArrow=block;labelBackgroundColor=none;fontFamily=Verdana;fontSize=12;edgeStyle=elbowEdgeStyle;elbow=vertical;" edge="1" parent="1">
          <mxGeometry relative="1" as="geometry">
            <mxPoint x="582" y="690" as="sourcePoint" />
            <mxPoint x="1001.5" y="690" as="targetPoint" />
          </mxGeometry>
        </mxCell>
        <mxCell id="mmyLkOlGR0KKX4rd5R46-33" value="&quot;Fehlende DOJO Schüler gelöscht&lt;span style=&quot;background-color: initial;&quot;&gt;&quot;&lt;/span&gt;" style="html=1;verticalAlign=bottom;endArrow=open;dashed=1;endSize=8;labelBackgroundColor=none;fontFamily=Verdana;fontSize=12;edgeStyle=elbowEdgeStyle;elbow=vertical;" edge="1" parent="1">
          <mxGeometry relative="1" as="geometry">
            <mxPoint x="590" y="720" as="targetPoint" />
            <Array as="points">
              <mxPoint x="947" y="720" />
              <mxPoint x="977" y="720" />
            </Array>
            <mxPoint x="1002" y="720" as="sourcePoint" />
          </mxGeometry>
        </mxCell>
      </root>
    </mxGraphModel>
  </diagram>
</mxfile>
